<svg width="300" height="60" viewBox="0 0 300 60" fill="none" xmlns="http://www.w3.org/2000/svg">
<path d="M27.9371 0.350224C24.3216 1.42031 24.0204 2.86808 24.0204 19.8006C24.0204 38.5586 24.2614 39.314 30.1064 39.314C32.6974 39.314 34.5654 37.8662 35.168 35.4113C35.3488 34.593 35.4693 27.1024 35.3488 18.6676L35.168 3.43459L33.6616 1.92388C31.7936 0.0354958 30.2871 -0.405128 27.9371 0.350224ZM29.2628 29.3685C29.2025 34.6559 29.082 30.3756 29.082 19.8006C29.082 9.22565 29.2025 4.9453 29.2628 10.1698C29.3833 15.4573 29.3833 24.1439 29.2628 29.3685Z" fill="white"/>
<path d="M257.518 6.70783C255.289 10.2328 254.988 11.5547 256.132 12.7507C257.579 14.2614 259.025 13.506 261.134 10.2328C263.363 6.70783 263.665 5.38595 262.52 4.18997C261.074 2.67927 259.627 3.43462 257.518 6.70783Z" fill="white"/>
<path d="M11.1253 9.85514C5.70209 13.569 1.54431 20.4931 0.339163 27.6689C-1.58908 39.314 4.85848 51.3997 15.7651 56.6242C18.4767 57.9461 21.6703 58.9532 23.7794 59.1421C26.3704 59.4568 27.0935 59.3309 26.3704 58.8903C25.5871 58.3867 25.4063 57.3166 25.5871 53.6028L25.7679 49.0077L22.6345 47.8747C18.6575 46.4269 13.174 40.8247 12.0894 37.0479C9.98037 29.5573 12.692 21.9408 19.019 17.8493L20.887 16.5904L18.1151 12.2471C16.5484 9.85514 14.9818 7.9038 14.6202 7.84085C14.2587 7.84085 12.692 8.7221 11.1253 9.85514Z" fill="white"/>
<path d="M41.9771 12.31L39.145 16.7792L41.6758 18.7935C43.0618 19.8636 44.99 22.1926 46.0144 23.8921C47.6413 26.5988 47.8221 27.4801 47.8221 31.6975C47.8221 35.3484 47.4606 37.1109 46.4965 39.0622C45.1708 41.643 41.4951 45.5457 39.0848 46.8675C37.036 48.0006 32.2757 49.3854 30.2269 49.3854H28.3589L28.5397 54.1063C28.6 57.1278 28.4794 58.8273 28.0576 58.8273C27.6358 58.8273 27.6358 59.0791 28.1179 59.5827C28.6602 60.1492 29.9859 60.1492 34.1437 59.5197C47.2195 57.5684 56.921 48.2523 59.03 35.6631C60.2954 28.4243 57.9454 20.556 52.8235 14.4502C50.4735 11.6806 46.0144 7.84084 45.1708 7.84084C44.99 7.84084 43.5438 9.85512 41.9771 12.31Z" fill="white"/>
<path d="M66.2006 17.5974C65.6583 18.2898 65.4775 22.5072 65.5378 34.0894C65.6583 51.3366 65.7788 52.092 69.0327 50.896L70.72 50.3295L70.9007 40.8876C71.0815 29.872 71.202 29.2425 72.7687 30.7532C73.9739 31.8862 74.8777 31.3197 74.0341 29.9349C73.7931 29.4313 73.7931 28.3612 74.0341 27.4171C74.6367 25.0251 74.3957 24.1438 71.9854 20.1782C69.6956 16.4644 67.7673 15.5832 66.2006 17.5974Z" fill="white"/>
<path d="M85.6036 17.4087C85.1215 17.9123 84.8805 21.1225 84.8805 27.7948C84.8805 33.0823 84.6395 37.4256 84.3382 37.4256C84.0369 37.4256 82.1689 35.0337 80.1201 32.0752C78.0714 29.1796 76.2034 26.6618 75.9624 26.473C75.7213 26.3471 75.5406 28.2355 75.6008 30.7533L75.6611 35.2854L80.783 43.0908C84.8805 49.3225 86.2664 51.022 87.4716 51.1479C88.5562 51.2738 89.2793 50.8961 90.0024 49.826C90.846 48.4412 90.9665 46.1751 90.7857 33.0823C90.605 20.3672 90.4844 17.7864 89.7011 17.2828C88.4357 16.4645 86.4472 16.5274 85.6036 17.4087Z" fill="white"/>
<path d="M97.6551 17.4087C96.6307 18.4788 96.6307 49.4484 97.6551 50.5184C98.559 51.4626 101.331 51.4626 102.235 50.5184C102.717 50.0149 102.958 46.8046 102.958 40.0694C102.958 33.6488 103.139 30.5645 103.56 30.8163C103.922 31.0681 106.151 34.2783 108.501 37.9292C116.214 50.0149 117.239 51.2738 119.227 51.2738C120.372 51.2738 121.216 50.8332 121.638 50.0778C122.541 48.2524 122.481 18.4158 121.517 17.4087C121.095 16.9681 120.071 16.6534 119.227 16.6534C116.455 16.6534 116.214 17.4717 116.214 27.7948C116.214 33.0823 116.034 37.4256 115.793 37.4256C115.491 37.3627 112.298 32.7676 108.622 27.1654C102.837 18.227 101.753 16.9681 100.186 16.7792C99.2218 16.6534 98.0769 16.9681 97.6551 17.4087Z" fill="white"/>
<path d="M133.99 17.6605C131.58 18.9194 129.592 20.9337 128.386 23.2627C127.603 24.7735 127.362 26.9766 127.362 33.9636C127.362 43.9091 127.844 45.4198 132.062 49.0078C134.051 50.6444 134.955 50.9591 138.51 51.1479C143.812 51.4627 147.428 49.8261 149.838 46.0493C151.405 43.5314 151.465 43.2797 151.465 33.9636C151.465 24.6476 151.405 24.3958 149.838 21.8779C147.669 18.4788 144.053 16.6534 139.353 16.6534C137.305 16.6534 135.015 17.094 133.99 17.6605ZM143.27 23.3886C144.897 24.7735 145.741 28.2355 145.741 33.9636C145.741 42.7131 144.174 45.6087 139.414 45.6087C137.244 45.6087 136.521 45.2939 135.256 43.6573C133.749 41.8319 133.689 41.3913 133.689 34.2154C133.689 26.6618 134.111 24.7105 136.039 23.1368C137.485 21.9409 141.764 22.1297 143.27 23.3886Z" fill="white"/>
<path d="M153.936 17.6605C153.393 18.1641 152.972 18.7306 152.972 18.8565C152.972 19.4859 162.553 48.7559 163.155 49.9519C164.24 52.0292 167.433 51.5885 168.518 49.1966C170.446 44.9162 178.28 19.4859 177.918 18.4158C177.376 16.5904 174.664 16.2127 173.459 17.7864C172.917 18.4788 171.049 23.6404 169.301 29.2426C167.554 34.9078 165.927 39.2511 165.626 38.9363C165.385 38.6216 163.758 34.0265 162.07 28.6761C160.323 23.3257 158.696 18.4788 158.334 17.7864C157.611 16.4016 155.201 16.2757 153.936 17.6605Z" fill="white"/>
<path d="M187.981 17.5345C187.017 18.7305 176.472 47.434 176.472 48.7559C176.472 50.2666 177.978 51.3996 179.605 51.1479C180.57 51.022 181.413 50.0778 182.438 48.0005L183.823 44.9791H190.392H196.96L198.285 47.9376C199.249 50.0778 200.093 51.022 201.057 51.1479C202.744 51.3996 204.19 50.2666 204.19 48.7559C204.19 47.3081 194.248 20.0524 192.983 18.1011C191.958 16.4645 189.066 16.1497 187.981 17.5345ZM192.681 32.7675C193.706 35.726 194.549 38.5586 194.549 39.0622C194.549 39.7546 193.645 39.9434 190.392 39.9434C188.041 39.9434 186.053 39.7546 185.932 39.4398C185.631 38.8104 189.729 27.3542 190.331 27.3542C190.633 27.3542 191.657 29.7461 192.681 32.7675Z" fill="white"/>
<path d="M212.627 17.5975C207.143 20.1782 205.998 23.0108 205.998 33.9635C205.998 44.7273 207.023 47.371 212.265 50.1407C215.459 51.8402 222.569 51.5884 225.1 49.6371C228.715 46.8045 230.583 41.9577 228.776 40.0693C227.45 38.6844 224.799 39.188 223.654 41.0135C221.605 44.5385 220.34 45.6085 218.231 45.6085C213.35 45.6085 212.024 43.0907 212.024 33.9635C212.024 24.8363 213.35 22.3184 218.231 22.3184C220.34 22.3184 221.605 23.3885 223.654 26.8506C225.401 29.809 229.499 28.676 229.499 25.2139C229.499 23.3885 227.329 20.0524 225.1 18.2899C222.87 16.5903 215.7 16.1497 212.627 17.5975Z" fill="white"/>
<path d="M234.681 18.0382C233.897 19.2342 233.717 21.8779 233.717 33.9636C233.717 49.7631 234.018 51.2738 237.031 51.2738C240.044 51.2738 240.345 49.7631 240.345 33.9636C240.345 18.1641 240.044 16.6534 237.031 16.6534C236.247 16.6534 235.163 17.2828 234.681 18.0382Z" fill="white"/>
<path d="M251.312 17.9752C249.805 18.7306 247.998 20.4301 247.094 21.8779C245.527 24.3328 245.467 24.7105 245.467 33.9007C245.467 42.7761 245.587 43.5944 246.853 45.7975C247.636 47.0564 249.504 48.8819 250.95 49.7631C253.3 51.2109 254.144 51.3997 258.061 51.1479C261.977 50.9591 262.821 50.7073 264.87 49.0078C268.847 45.7346 269.57 43.3426 269.57 33.9636C269.57 24.5846 268.847 22.1926 264.93 18.9824C263.002 17.3458 262.038 17.0311 258.302 16.8422C254.626 16.5904 253.481 16.7793 251.312 17.9752ZM261.495 24.144C263.243 25.9694 263.243 25.9694 263.243 33.9636C263.243 41.9578 263.243 41.9578 261.495 43.7832C260.17 45.168 259.145 45.6087 257.398 45.6087C252.698 45.6087 251.191 42.7761 251.191 33.9636C251.191 25.1511 252.698 22.3185 257.398 22.3185C259.145 22.3185 260.17 22.7592 261.495 24.144Z" fill="white"/>
<path d="M275.415 17.4087C274.39 18.4787 274.39 49.4483 275.415 50.5184C276.56 51.7144 279.392 51.4626 280.115 50.0778C280.416 49.3854 280.717 44.7903 280.717 39.6916C280.717 34.6559 280.898 30.5015 281.2 30.5015C281.441 30.5644 284.634 35.1595 288.25 40.7617C293.914 49.4483 295.119 50.959 296.565 51.1479C299.94 51.5885 300 51.3367 300 34.0265C300 22.5073 299.819 17.9752 299.277 17.4087C298.132 16.2127 295.3 16.4645 294.577 17.8493C294.275 18.5417 293.974 23.1368 293.974 28.2354C293.974 37.3626 293.613 38.9363 292.106 35.9778C290.72 33.3341 280.597 18.227 279.633 17.4087C278.428 16.4645 276.379 16.4015 275.415 17.4087Z" fill="white"/>
</svg>
